<?xml version="1.0" standalone="no"?>
<!DOCTYPE svg PUBLIC "-//W3C//DTD SVG 20010904//EN"
 "http://www.w3.org/TR/2001/REC-SVG-20010904/DTD/svg10.dtd">
<svg version="1.0" xmlns="http://www.w3.org/2000/svg"
 width="990.000000pt" height="990.000000pt" viewBox="0 0 990.000000 990.000000"
 preserveAspectRatio="xMidYMid meet">

<g transform="translate(0.000000,990.000000) scale(0.100000,-0.100000)"
fill="#000000" stroke="none">
<path d="M7478 9314 c-4 -3 1 -22 9 -42 12 -28 13 -44 4 -72 -11 -36 -66 -110
-82 -110 -5 0 -9 17 -9 38 0 36 -42 120 -69 136 -6 4 -20 -14 -33 -41 -17 -36
-34 -54 -67 -72 -41 -23 -60 -25 -230 -32 -299 -11 -512 -71 -664 -187 -52
-40 -127 -142 -127 -174 0 -10 -31 -52 -70 -93 -102 -108 -141 -174 -193 -332
-57 -174 -70 -241 -70 -373 0 -184 57 -328 181 -461 l70 -75 -13 -50 c-15 -60
-5 -140 24 -187 70 -113 207 -158 314 -103 26 13 47 21 47 17 0 -3 25 -34 55
-67 l54 -62 -90 -16 c-121 -22 -265 -75 -363 -133 -90 -53 -224 -180 -245
-230 l-13 -33 -181 -2 c-133 -2 -181 -6 -185 -15 -3 -10 36 -13 173 -13 l176
0 -8 -22 c-4 -13 -8 -57 -8 -98 0 -103 33 -170 134 -270 76 -76 140 -115 231
-141 32 -10 62 -30 105 -74 100 -100 207 -142 276 -108 13 6 45 21 71 31 29
13 52 31 61 49 9 16 27 35 40 42 34 18 51 60 38 93 -8 20 -6 29 5 38 19 17 18
74 -3 113 -9 18 -16 41 -14 53 3 29 -33 70 -93 104 -60 35 -107 38 -184 11
-45 -15 -54 -16 -60 -4 -6 10 17 39 76 99 l85 84 373 0 372 0 12 -36 c7 -19
29 -53 51 -76 33 -35 43 -40 71 -35 27 4 40 -2 71 -29 39 -36 56 -40 87 -24
30 16 70 106 70 157 l0 46 228 -8 c125 -4 254 -7 287 -6 533 7 890 18 890 26
0 6 -114 12 -313 15 l-314 5 46 32 c26 18 60 54 77 80 27 43 30 54 25 100 -8
68 -49 155 -93 193 -67 60 -181 100 -280 100 -18 0 -33 2 -33 5 0 3 16 26 37
52 76 101 113 218 113 363 0 147 -49 275 -146 379 -39 42 -54 66 -50 78 4 9
-1 25 -13 37 -17 19 -20 40 -23 201 -4 175 -5 182 -36 260 -76 192 -204 349
-344 420 l-39 20 -3 80 c-2 63 -8 91 -29 132 -31 60 -122 157 -184 196 -44 28
-55 31 -65 21z m129 -127 c97 -100 128 -184 103 -276 -18 -67 -114 -159 -205
-196 -61 -24 -89 -29 -215 -35 l-145 -7 135 -1 c212 -3 315 31 409 134 l48 52
59 -32 c145 -77 304 -304 344 -490 11 -49 13 -227 3 -277 l-5 -25 -55 19 c-45
15 -68 17 -116 10 -93 -12 -84 -31 15 -29 109 1 160 -23 189 -91 11 -25 44
-73 74 -105 98 -105 130 -196 128 -363 -1 -183 -44 -279 -181 -406 -117 -107
-358 -219 -472 -219 -26 0 -80 -11 -121 -25 -106 -37 -253 -50 -400 -35 -158
15 -223 33 -275 76 -53 43 -131 80 -204 96 -47 10 -64 21 -116 73 -33 33 -71
75 -85 94 l-25 34 -30 -31 c-59 -59 -171 -52 -246 16 -104 94 -103 250 2 315
28 18 48 22 103 20 l67 -1 0 83 c0 55 7 105 20 146 10 35 18 65 16 66 -12 12
-66 -177 -66 -232 0 -29 -1 -30 -39 -27 -49 5 -102 -12 -141 -44 l-29 -25 -63
64 c-66 66 -114 146 -149 244 -30 83 -37 263 -15 370 21 106 87 301 123 365
33 58 140 184 164 193 9 3 22 25 27 48 34 132 170 236 397 303 123 37 229 36
390 -1 135 -31 266 -37 330 -16 97 33 175 122 175 199 0 18 4 32 8 32 5 0 36
-28 69 -63z m-252 -17 c17 -34 19 -73 5 -100 -23 -43 -136 -51 -311 -20 -63
11 -127 20 -142 20 -16 0 -26 4 -22 10 4 6 61 10 139 10 165 0 222 15 274 70
20 22 38 39 39 40 1 0 9 -13 18 -30z m1093 -2165 c92 -28 165 -114 181 -214 7
-42 4 -56 -13 -88 -27 -48 -104 -106 -170 -128 -71 -24 -219 -30 -337 -15 -91
11 -98 14 -89 30 16 30 -5 33 -52 8 -37 -20 -58 -23 -153 -23 -60 0 -113 -4
-117 -9 -3 -5 -2 -20 3 -33 13 -35 11 -76 -5 -98 -13 -17 -15 -16 -39 21 -30
45 -51 117 -42 144 7 22 -14 38 -26 19 -18 -28 -8 -86 25 -156 19 -39 39 -74
45 -78 15 -9 4 -25 -18 -25 -48 0 -130 136 -138 231 -4 38 -10 59 -18 59 -33
0 -24 -104 16 -182 14 -28 17 -44 10 -51 -17 -17 -78 56 -96 115 -37 126 26
205 214 267 54 18 72 19 130 11 126 -18 144 -15 220 39 104 74 210 129 292
151 91 23 112 24 177 5z m-1681 -81 c63 -21 123 -63 204 -140 75 -72 97 -79
223 -72 l82 4 -43 -41 c-24 -23 -43 -47 -43 -54 0 -6 11 -23 25 -36 l24 -25
-277 0 -277 1 35 30 35 30 -46 -25 c-51 -29 -63 -32 -56 -13 19 52 16 57 -11
17 -42 -65 -103 -130 -155 -168 l-45 -32 -21 33 c-50 82 -173 126 -271 98 -19
-6 -9 -9 42 -14 118 -11 191 -63 248 -176 24 -47 14 -46 125 -15 71 21 98 16
156 -28 55 -43 64 -68 13 -36 -70 44 -70 41 -1 -27 69 -70 88 -106 70 -134
-11 -17 -70 -21 -113 -8 l-25 8 25 -20 c14 -12 36 -24 50 -27 14 -3 31 -7 38
-10 15 -4 16 -56 0 -72 -18 -18 -87 -14 -138 8 l-45 20 35 -31 c19 -16 47 -33
63 -36 34 -7 34 -16 1 -42 -34 -27 -89 -27 -133 0 -47 28 -49 17 -4 -20 36
-30 37 -31 13 -32 -73 -4 -126 24 -210 111 -49 50 -75 69 -102 74 -123 23
-271 143 -333 270 -34 68 -37 81 -32 133 21 236 302 446 677 506 61 10 153 6
197 -9z m651 -191 c-3 -5 -15 -31 -28 -59 -24 -54 -65 -84 -114 -84 -27 0 -49
21 -41 41 7 20 146 109 168 109 10 0 17 -3 15 -7z"/>
<path d="M6750 8612 c0 -14 121 -69 186 -85 79 -20 177 -27 244 -17 51 7 47 7
-41 9 -111 1 -215 25 -311 70 -70 33 -78 36 -78 23z"/>
<path d="M7880 8416 c0 -13 10 -16 48 -16 27 0 71 -7 97 -15 27 -8 51 -13 53
-11 9 10 -99 50 -145 54 -44 4 -53 2 -53 -12z"/>
<path d="M7053 8330 c-39 -27 -86 -68 -105 -92 -52 -64 -56 -78 -12 -37 50 47
123 95 179 120 48 21 52 28 33 47 -17 17 -18 17 -95 -38z"/>
<path d="M7942 8004 c-12 -8 -29 -28 -37 -44 -59 -115 75 -215 154 -114 35 44
26 128 -18 161 -22 17 -72 16 -99 -3z m102 -67 c16 -25 -16 -56 -38 -37 -19
15 -20 32 -4 48 15 15 28 11 42 -11z"/>
<path d="M7179 7980 c-97 -17 -160 -68 -205 -165 -27 -57 -30 -75 -11 -75 8 0
19 17 25 38 18 59 75 127 128 153 66 32 154 32 222 0 51 -24 71 -24 57 -1 -11
18 -84 47 -130 53 -22 3 -61 1 -86 -3z"/>
<path d="M7119 7893 c-15 -9 -34 -29 -43 -44 -19 -32 -21 -102 -3 -116 6 -6
47 -18 91 -28 77 -17 79 -17 99 3 14 14 22 38 25 76 4 53 3 57 -31 91 -28 28
-43 35 -73 35 -22 0 -51 -8 -65 -17z m136 -72 c10 -31 -5 -52 -34 -49 -26 3
-38 26 -27 54 8 21 53 18 61 -5z"/>
<path d="M7787 7793 c-14 -13 -6 -21 26 -27 58 -11 96 -68 70 -106 -21 -30 -1
-52 24 -27 24 24 23 89 -2 118 -31 34 -101 60 -118 42z"/>
<path d="M7757 7632 c-20 -22 -22 -42 -4 -42 16 0 47 32 47 48 0 18 -25 14
-43 -6z"/>
<path d="M7985 7565 c-47 -49 -69 -65 -91 -66 -57 -2 -108 3 -133 12 -49 19
-119 13 -160 -14 -60 -40 -86 -103 -86 -207 0 -126 30 -204 98 -254 35 -26
113 -27 150 -3 23 15 27 15 63 -4 90 -45 225 -9 284 76 17 24 39 46 50 50 29
9 60 67 67 124 8 71 -14 197 -44 253 -27 49 -85 98 -117 98 -10 0 -46 -29 -81
-65z m143 3 c17 -18 38 -51 47 -72 22 -53 35 -186 23 -239 -8 -38 -32 -77 -47
-77 -3 0 -5 42 -3 94 4 112 -6 139 -48 134 -16 -1 -36 5 -47 14 -23 21 -86 48
-110 48 -66 0 -155 -56 -167 -105 -4 -16 -19 -30 -41 -39 -51 -22 -61 -51 -40
-122 9 -33 30 -77 46 -98 35 -48 29 -58 -44 -64 -46 -4 -57 -1 -84 22 -47 40
-76 123 -76 221 -1 86 13 126 61 177 35 38 78 43 175 23 117 -24 157 -14 222
59 60 67 86 71 133 24z m-121 -138 c1 0 14 -12 28 -27 47 -52 26 -131 -45
-168 -41 -21 -122 -19 -150 3 -20 16 -21 21 -10 39 16 25 7 53 -20 60 -18 5
-18 7 -4 34 27 53 105 84 169 67 16 -4 31 -8 32 -8z m129 -97 c15 -125 -31
-238 -116 -280 -52 -27 -146 -31 -189 -8 -68 34 -137 154 -129 222 3 30 32 49
83 55 24 2 30 -1 30 -17 0 -14 -10 -23 -33 -30 -31 -9 -33 -12 -28 -43 15 -96
104 -171 186 -157 46 8 94 38 124 78 18 25 21 43 21 133 0 100 1 104 22 104
19 0 22 -7 29 -57z m-71 -130 c-5 -23 -8 -24 -58 -18 -55 7 -125 -11 -158 -41
-10 -9 -23 -13 -29 -9 -15 10 -50 81 -50 104 0 19 4 18 45 -11 38 -27 55 -32
98 -32 57 0 133 33 145 62 6 14 7 13 10 -7 2 -12 1 -34 -3 -48z m-25 -52 c0
-15 -52 -48 -88 -56 -38 -8 -102 1 -102 15 0 5 17 18 38 29 39 21 152 29 152
12z"/>
<path d="M6262 7387 c-12 -7 -30 -24 -39 -37 -16 -22 -16 -23 3 -16 42 18 54
19 49 4 -3 -8 -1 -25 4 -39 9 -22 10 -23 10 -3 1 12 9 32 20 45 17 21 22 22
46 11 29 -13 45 -9 45 13 0 33 -92 47 -138 22z"/>
<path d="M2903 9015 c-52 -16 -127 -59 -145 -83 -11 -15 -33 -17 -153 -18
-222 -2 -347 -39 -477 -141 -120 -95 -252 -311 -353 -578 -21 -55 -39 -101
-40 -103 -1 -1 -19 5 -41 14 -106 44 -225 -31 -249 -157 -13 -71 30 -164 97
-208 l36 -23 -18 -32 c-69 -118 -82 -339 -28 -481 59 -157 158 -289 291 -389
27 -20 44 -36 38 -36 -19 0 -324 111 -381 138 -46 23 -64 40 -114 112 -32 47
-104 146 -160 220 -56 74 -105 140 -109 147 -12 19 63 144 100 165 17 10 64
26 104 34 40 8 79 20 86 26 36 29 -3 115 -66 148 -49 25 -145 27 -198 5 -45
-19 -57 -15 -80 27 -15 28 -18 58 -18 210 0 197 -5 212 -64 210 -69 -2 -104
-58 -116 -186 -6 -75 -18 -109 -27 -84 -3 8 -11 49 -18 91 -14 83 -35 127 -74
153 -53 34 -104 -7 -114 -91 l-5 -45 -29 25 c-38 32 -72 32 -105 -1 -23 -24
-25 -31 -20 -87 3 -35 17 -88 31 -121 15 -32 26 -62 24 -67 -2 -4 -36 14 -75
41 -66 44 -76 48 -102 39 -62 -22 -48 -110 33 -207 19 -23 56 -81 82 -129 75
-140 133 -222 182 -258 44 -31 47 -38 96 -181 81 -235 188 -439 266 -509 l22
-20 -213 -5 c-181 -4 -214 -7 -214 -20 0 -13 166 -15 1422 -18 l1423 -2 19
-38 c28 -55 44 -66 91 -58 35 5 40 4 40 -12 0 -25 31 -52 60 -52 13 0 36 11
50 25 l27 25 18 -20 c10 -11 31 -20 47 -20 34 0 78 39 78 69 0 23 16 36 25 21
3 -5 19 -10 35 -10 21 0 37 9 57 35 l28 35 168 0 c155 0 168 1 165 18 -3 15
-20 17 -165 20 l-161 2 9 33 c20 68 -14 117 -79 117 -23 0 -40 -8 -55 -24 -20
-23 -23 -23 -53 -9 -25 12 -39 13 -62 5 -26 -9 -33 -7 -51 14 -25 29 -94 34
-123 7 -17 -15 -18 -15 -18 3 0 26 -41 72 -65 75 -50 4 -66 -2 -85 -33 -11
-18 -20 -45 -20 -60 0 -23 -7 -31 -37 -43 -43 -18 -83 -53 -83 -72 0 -9 -17
-13 -61 -13 l-61 0 75 50 c88 59 189 163 240 247 l37 61 38 -14 c79 -28 167
-11 225 44 49 46 61 81 58 167 -2 64 -81 145 -140 145 -30 0 -31 10 -4 69 62
139 126 308 149 398 33 125 37 302 10 403 -41 152 -138 310 -270 440 -44 42
-92 103 -113 139 -74 133 -210 247 -340 286 -59 18 -173 18 -230 0z m190 -30
c83 -17 154 -55 223 -118 50 -46 144 -174 144 -197 0 -6 36 -45 79 -86 249
-236 339 -479 285 -764 -23 -124 -64 -239 -168 -472 -52 -117 -106 -244 -121
-283 -65 -175 -179 -320 -321 -411 -121 -77 -101 -75 -511 -75 -417 0 -402 -2
-573 86 -379 196 -579 438 -597 720 -7 111 14 193 91 350 35 72 97 216 136
320 40 105 92 234 116 288 132 297 282 454 490 512 52 14 344 35 344 24 0 -2
-9 -28 -20 -57 -11 -29 -20 -58 -19 -65 0 -6 9 11 20 40 42 110 171 192 319
202 8 0 46 -6 83 -14z m-2103 -824 c6 -13 7 -36 0 -72 -24 -128 -4 -295 42
-341 16 -16 28 -19 61 -14 133 18 181 18 215 -3 18 -12 38 -33 44 -47 15 -32
7 -38 -76 -54 -107 -21 -148 -50 -185 -131 -20 -42 -94 -125 -146 -164 -34
-24 5 -18 61 10 27 14 54 23 61 21 13 -5 190 -240 277 -368 58 -85 60 -87 140
-122 45 -19 148 -57 230 -86 154 -53 270 -116 330 -179 l30 -31 -480 -1 c-263
-1 -488 0 -499 1 -90 9 -239 252 -344 563 -47 139 -52 150 -88 174 -55 36
-106 104 -161 213 -26 52 -62 115 -81 140 -92 120 -114 180 -68 180 13 0 43
-15 66 -32 88 -68 105 -79 120 -76 28 5 23 51 -14 147 -39 100 -43 156 -13
175 37 23 98 -51 138 -169 46 -136 55 -114 21 50 -34 164 -26 214 31 215 27 0
46 -48 62 -158 16 -107 30 -142 57 -142 34 0 42 24 68 203 5 38 17 80 26 93
19 29 60 32 75 5z m706 -96 c20 -13 21 -18 11 -50 -6 -19 -13 -34 -16 -32 -36
20 -87 38 -105 35 -31 -4 -27 -33 5 -33 32 -1 79 -30 79 -49 0 -8 -9 -36 -21
-63 -54 -126 -57 -128 -103 -92 -37 29 -66 91 -66 140 0 118 127 202 216 144z
m2038 -830 c39 -18 76 -80 76 -124 0 -104 -106 -186 -211 -162 -23 5 -46 14
-51 19 -9 9 47 167 64 178 19 12 76 6 101 -11 34 -22 55 -10 31 16 -19 21 -89
44 -104 34 -13 -8 -13 7 0 39 11 31 45 34 94 11z m-198 -491 c10 -14 21 -63
27 -112 8 -73 7 -93 -6 -124 -19 -44 -38 -48 -66 -12 -37 47 -58 226 -31 259
20 24 58 18 76 -11z m152 -42 c47 -30 24 -235 -32 -281 -15 -12 -19 -12 -34 3
-14 14 -17 37 -17 135 0 85 4 122 14 134 14 18 48 22 69 9z m283 -12 c25 -14
25 -64 0 -122 -43 -100 -85 -83 -79 33 5 89 28 116 79 89z m-130 -42 c14 -27
6 -132 -15 -182 -20 -48 -43 -56 -69 -25 -17 21 -19 34 -14 94 9 104 22 135
58 135 19 0 32 -7 40 -22z m-421 -37 c0 -27 -3 -29 -47 -34 -27 -3 -50 -3 -52
-1 -7 6 32 46 54 55 35 14 45 10 45 -20z"/>
<path d="M2930 8910 c-50 -26 -122 -100 -148 -154 -62 -124 -41 -274 56 -387
58 -67 74 -63 22 6 -27 36 -55 84 -62 108 -20 65 -15 184 9 237 27 60 101 141
157 171 25 13 46 27 46 31 0 14 -44 7 -80 -12z"/>
<path d="M3223 8721 c-47 -12 -115 -55 -141 -90 -28 -39 -52 -104 -51 -140 1
-20 3 -17 10 14 23 97 102 163 219 183 29 5 45 13 45 22 0 17 -36 22 -82 11z"/>
<path d="M2153 8263 c-29 -9 -53 -18 -53 -22 0 -3 25 -4 55 -3 40 3 75 -3 121
-19 49 -17 67 -20 76 -11 26 26 -55 73 -122 71 -14 0 -49 -8 -77 -16z"/>
<path d="M1951 7953 c-1 -47 -2 -48 -34 -32 -17 9 -16 5 8 -20 l30 -30 60 29
c77 38 97 39 62 2 -15 -15 -29 -41 -32 -57 -5 -27 -1 -33 42 -62 26 -18 60
-42 75 -53 l28 -22 30 30 c16 17 30 40 30 51 0 12 5 21 11 21 11 0 10 -25 -7
-109 -6 -26 -4 -33 7 -29 21 7 38 66 38 137 1 60 -1 65 -37 101 -26 27 -56 44
-97 56 -59 17 -61 17 -124 -5 -65 -23 -75 -21 -84 14 -3 11 -5 1 -6 -22z m167
-85 c11 -11 17 -48 8 -48 -2 0 -11 -3 -19 -6 -23 -9 -49 24 -37 47 12 22 30
25 48 7z m82 -18 c0 -21 -15 -27 -25 -10 -7 12 2 30 16 30 5 0 9 -9 9 -20z"/>
<path d="M3195 7850 c-10 -16 3 -29 54 -55 60 -30 108 -70 132 -110 21 -33 26
-15 9 29 -29 77 -171 175 -195 136z"/>
<path d="M2423 7592 c-44 -34 -50 -122 -9 -130 15 -3 17 1 11 27 -9 41 0 66
31 79 38 18 59 15 94 -14 24 -21 34 -24 43 -15 9 10 5 19 -21 42 -26 23 -41
29 -80 29 -29 0 -55 -7 -69 -18z"/>
<path d="M2975 7534 c-37 -19 -59 -39 -97 -86 -47 -60 -12 -59 49 2 27 27 58
50 67 50 13 0 8 -9 -18 -34 -29 -27 -36 -41 -36 -72 l0 -39 73 -18 c39 -11 81
-21 92 -24 25 -6 55 41 55 89 l1 33 14 -25 c8 -14 17 -50 21 -81 l6 -57 39 2
c40 1 50 10 24 20 -26 10 -16 35 18 44 l32 9 -36 7 c-27 5 -38 13 -42 29 -2
12 -7 29 -11 38 -5 10 1 19 16 27 23 10 23 11 -6 11 -17 1 -35 10 -47 25 -45
57 -153 82 -214 50z m106 -89 c-1 -15 -24 -12 -29 3 -3 9 2 13 12 10 10 -1 17
-7 17 -13z m-67 -21 c12 -12 13 -20 6 -35 -11 -20 -19 -23 -44 -13 -19 7 -21
35 -4 52 16 16 23 15 42 -4z"/>
<path d="M2525 7440 c-9 -15 4 -30 26 -30 12 0 19 7 19 20 0 21 -33 29 -45 10z"/>
<path d="M2098 7433 c-35 -5 -37 -23 -3 -23 20 0 25 -6 30 -37 27 -158 86
-269 171 -319 98 -58 186 -51 332 23 82 42 95 46 113 35 30 -19 30 -12 3 28
-15 21 -24 28 -24 18 0 -14 -7 -16 -37 -11 -159 24 -391 128 -491 218 -34 31
-60 61 -56 66 3 5 2 8 -3 8 -4 -1 -20 -4 -35 -6z"/>
<path d="M885 7721 c-68 -42 -105 -109 -105 -188 l0 -48 25 60 c31 75 51 102
103 140 22 17 41 36 41 43 1 18 -29 15 -64 -7z"/>
<path d="M2251 4730 c-91 -25 -174 -69 -285 -154 -52 -40 -99 -68 -122 -72
-48 -9 -124 1 -201 27 -35 11 -67 18 -70 15 -3 -3 8 -34 25 -68 18 -35 34 -85
37 -113 l5 -50 -14 44 c-13 40 -50 91 -66 91 -4 0 3 -20 15 -45 42 -82 8 -191
-125 -400 -77 -120 -120 -212 -157 -331 -24 -81 -27 -104 -27 -249 -1 -144 2
-170 26 -257 59 -212 173 -435 286 -560 l34 -38 -24 -20 c-38 -29 -58 -81 -58
-145 0 -55 -1 -57 -22 -51 -127 37 -233 40 -305 11 -83 -35 -168 -155 -180
-254 -8 -67 11 -114 68 -171 l50 -50 -186 0 c-172 0 -186 -1 -183 -17 3 -16
26 -19 248 -24 155 -3 262 -10 290 -19 62 -18 256 -16 363 3 66 12 121 15 218
10 l129 -6 0 -47 c0 -48 44 -154 72 -171 29 -19 68 -9 107 26 25 23 45 33 55
29 46 -18 112 37 148 123 l22 53 407 0 c358 0 408 -2 413 -15 5 -14 -2 -15
-54 -9 -39 4 -70 2 -89 -5 -27 -12 -51 -47 -51 -75 0 -16 76 -71 132 -95 l43
-18 -53 -12 c-29 -6 -61 -11 -72 -11 -55 0 -77 -34 -56 -85 17 -39 63 -65 115
-65 21 0 32 -6 36 -21 7 -21 60 -59 83 -59 7 0 28 -16 46 -35 30 -31 39 -35
85 -35 57 0 104 16 153 54 18 13 74 45 123 71 50 25 106 59 125 74 29 23 48
29 110 33 156 12 340 114 435 241 l47 62 187 5 c156 4 186 7 186 20 0 13 -28
15 -179 18 l-178 2 6 44 c9 59 -11 104 -65 148 -168 136 -387 195 -690 186
l-157 -5 73 58 c186 147 332 382 357 575 26 194 -62 409 -231 566 -105 97
-113 114 -191 405 -81 301 -135 415 -246 527 -122 122 -316 205 -481 206 -47
0 -54 3 -70 30 -20 34 -69 71 -128 96 -63 27 -250 29 -344 4z m318 -34 c58
-20 108 -55 127 -92 16 -30 20 -31 98 -37 200 -15 373 -100 494 -241 83 -97
128 -211 228 -581 44 -162 72 -215 159 -298 122 -115 185 -218 221 -357 23
-92 15 -233 -20 -318 -61 -152 -160 -291 -285 -398 -250 -216 -565 -315 -955
-301 -264 9 -488 72 -620 173 l-47 36 -39 -36 c-21 -19 -55 -39 -75 -45 -34
-9 -43 -6 -158 60 -66 38 -124 75 -129 82 -13 20 -9 85 7 125 9 20 32 51 52
68 l37 31 -48 54 c-137 151 -265 414 -307 631 -20 99 -15 289 9 380 42 157
137 336 263 494 68 86 89 135 88 214 0 36 -6 83 -14 105 -8 22 -15 41 -15 42
0 0 21 -7 48 -17 74 -28 146 -32 282 -15 247 29 344 18 451 -55 24 -16 46 -27
48 -24 2 2 -9 21 -25 42 -73 91 -189 110 -424 69 -80 -14 -146 -24 -148 -22
-2 2 7 9 20 15 12 7 64 43 113 80 126 95 207 133 319 151 68 11 193 3 245 -15z
m-1139 -2362 c84 -19 231 -90 338 -161 l85 -57 96 12 c133 17 141 16 234 -20
142 -54 175 -83 198 -169 10 -38 9 -53 -6 -101 -20 -64 -68 -128 -96 -128 -24
0 -24 -4 8 66 33 72 39 176 11 182 -15 3 -18 -4 -18 -47 0 -117 -115 -295
-169 -261 -11 6 -7 17 16 51 56 85 81 164 69 215 -5 17 -12 24 -24 22 -13 -2
-16 -13 -14 -48 2 -33 -5 -62 -27 -107 -17 -35 -34 -63 -39 -63 -25 0 -35 32
-29 95 l6 64 -102 0 c-113 0 -144 5 -200 33 -43 21 -62 17 -47 -12 9 -16 3
-19 -57 -30 -235 -41 -422 -12 -528 82 -89 78 -99 152 -36 262 67 119 173 158
331 120z m2540 -120 c82 -15 170 -42 184 -55 6 -5 -15 -9 -51 -9 -104 0 -185
-41 -318 -163 l-71 -65 -34 15 c-58 26 -173 20 -255 -12 l-70 -27 -376 -5
-375 -5 4 34 c3 31 -1 39 -41 74 l-44 39 171 1 c253 1 429 37 641 129 94 41
172 59 295 69 75 6 260 -5 340 -20z m-1961 -8 c39 -29 33 -32 -79 -40 -63 -5
-70 -4 -45 6 17 6 43 22 58 34 16 13 30 24 31 24 1 0 17 -11 35 -24z m2256
-118 c91 -34 131 -84 121 -150 -27 -170 -284 -358 -488 -358 -52 0 -63 -4
-109 -39 -29 -22 -91 -58 -138 -82 -47 -23 -102 -55 -121 -70 -19 -15 -54 -33
-78 -40 -37 -11 -48 -10 -79 5 -41 19 -37 26 27 49 25 10 61 30 80 46 30 26
33 30 17 36 -11 5 -31 -2 -55 -17 -73 -48 -165 -63 -196 -32 -20 20 -14 30 22
37 46 9 142 57 149 73 11 28 -7 27 -75 -4 -120 -56 -216 -61 -252 -15 -11 14
-20 29 -20 32 0 4 44 14 98 24 108 20 186 50 180 69 -3 8 -30 15 -69 19 -44 3
-81 14 -117 34 -67 36 -79 50 -61 71 11 13 25 15 74 10 33 -3 89 -9 125 -12
97 -9 203 26 173 57 -10 10 -20 9 -48 -4 -41 -20 -116 -22 -133 -5 -28 28 -14
43 40 44 31 1 85 13 128 29 88 32 167 31 226 -4 l36 -21 92 87 c97 93 168 139
238 152 58 12 152 3 213 -21z m-1790 -72 c39 -25 80 -54 90 -66 19 -22 19 -22
0 -36 -10 -8 -32 -14 -47 -14 -51 0 -85 26 -114 87 -16 32 -30 61 -32 66 -10
20 39 2 103 -37z"/>
<path d="M2268 4627 c-98 -28 -110 -39 -21 -20 40 8 103 13 153 11 109 -4 152
-24 174 -79 19 -46 49 -51 54 -8 4 34 -32 77 -82 100 -57 26 -178 24 -278 -4z"/>
<path d="M1732 4153 c-14 -89 -62 -196 -116 -258 -25 -28 -32 -43 -25 -52 15
-17 30 -8 69 45 54 74 82 154 88 254 3 49 3 88 0 88 -2 0 -10 -35 -16 -77z"/>
<path d="M3245 3850 c-60 -9 -105 -26 -105 -39 0 -18 15 -19 70 -5 30 8 84 14
119 13 42 -2 66 2 69 9 7 22 -76 33 -153 22z"/>
<path d="M3270 3555 c-50 -16 -96 -54 -111 -92 -26 -70 7 -190 53 -191 13 -1
37 -4 53 -7 66 -13 125 62 111 140 -9 46 -49 92 -89 101 l-32 7 25 9 c59 23
193 -22 220 -72 12 -23 40 -27 40 -6 0 42 -103 109 -185 120 -22 3 -60 -1 -85
-9z m35 -115 c-5 -8 -11 -8 -17 -2 -6 6 -7 16 -3 22 5 8 11 8 17 2 6 -6 7 -16
3 -22z m43 -22 c18 -18 14 -46 -7 -58 -15 -7 -23 -6 -35 6 -20 19 -20 29 0 48
19 19 26 20 42 4z"/>
<path d="M2270 3491 c-83 -26 -220 -124 -220 -157 0 -24 20 -16 68 27 26 23
76 55 112 71 89 40 95 44 93 54 -3 12 -23 14 -53 5z"/>
<path d="M2283 3160 c-90 -46 -124 -120 -106 -227 12 -69 26 -94 43 -77 6 6 6
22 0 44 -6 19 -10 57 -9 85 l0 50 13 -48 c15 -56 37 -83 81 -97 42 -14 95 6
121 45 36 56 13 159 -44 189 l-27 15 38 1 c61 0 143 -52 159 -102 3 -7 12 -9
21 -5 16 6 16 9 3 34 -48 94 -198 141 -293 93z m92 -120 c-5 -8 -11 -8 -17 -2
-6 6 -7 16 -3 22 5 8 11 8 17 2 6 -6 7 -16 3 -22z m49 -32 c8 -13 6 -22 -8
-37 -20 -22 -42 -18 -51 10 -13 41 36 64 59 27z"/>
<path d="M2941 3167 c-19 -7 -36 -18 -39 -25 -3 -10 9 -12 56 -6 46 5 67 2 95
-11 42 -20 49 -40 28 -77 -17 -31 -8 -48 17 -32 25 17 38 70 22 98 -23 44
-121 72 -179 53z"/>
<path d="M2943 2995 c-15 -17 -17 -45 -3 -45 11 0 50 40 50 52 0 13 -34 8 -47
-7z"/>
<path d="M3277 2906 c-14 -29 -42 -72 -63 -95 -73 -81 -142 -100 -392 -108
-119 -4 -172 -9 -169 -17 2 -6 39 -14 83 -17 43 -3 110 -16 149 -27 94 -29
173 -29 211 0 16 12 33 29 38 38 5 8 38 41 73 74 82 76 150 206 109 206 -8 0
-26 -24 -39 -54z"/>
<path d="M1684 2441 c-34 -21 -63 -76 -47 -92 6 -6 18 2 34 26 30 44 39 44 39
-1 0 -45 22 -41 31 5 10 48 22 55 58 36 34 -17 53 -13 45 9 -14 37 -110 47
-160 17z"/>
<path d="M7600 4510 c-44 -13 -104 -21 -185 -24 -136 -4 -232 -24 -320 -66
-64 -31 -156 -113 -182 -164 -9 -17 -46 -63 -82 -103 -146 -158 -221 -347
-240 -602 -7 -98 1 -342 14 -443 l7 -48 -44 0 c-50 0 -114 -27 -145 -61 -93
-103 -5 -351 130 -366 l45 -5 7 -56 c9 -76 41 -177 73 -232 14 -25 51 -71 81
-104 l56 -59 -29 -21 c-85 -62 -153 -125 -204 -191 l-57 -73 -305 -4 c-263 -3
-305 -5 -305 -18 0 -13 150 -15 1282 -18 l1281 -2 7 -29 c9 -41 38 -65 72 -58
24 4 30 1 43 -26 19 -40 44 -45 82 -17 l30 22 14 -21 c9 -12 25 -21 37 -21 27
0 67 26 67 43 0 7 4 18 9 25 7 11 12 12 29 1 28 -18 64 2 88 47 l19 34 126 0
c69 0 128 3 132 6 3 3 3 12 0 20 -4 11 -31 14 -124 14 l-119 0 0 25 c0 55 -80
87 -122 49 -14 -14 -20 -14 -33 -4 -9 8 -30 11 -55 7 -22 -3 -40 -1 -40 3 0
32 -82 54 -107 29 -8 -8 -16 0 -29 28 -17 34 -23 38 -61 41 -33 2 -44 -1 -57
-20 -9 -12 -16 -33 -16 -45 0 -16 -10 -27 -34 -37 -32 -13 -40 -12 -109 15
-41 15 -104 34 -141 41 -36 7 -66 16 -66 20 0 5 5 8 11 8 7 0 62 25 124 54
170 83 277 192 336 344 l22 57 71 0 c85 1 147 29 214 96 65 66 86 118 90 224
3 79 0 95 -20 129 -30 51 -65 76 -117 83 l-43 6 6 36 c31 183 32 512 2 649
-21 96 -74 237 -117 307 -19 32 -69 98 -113 148 -43 50 -82 102 -87 115 -15
38 -10 85 12 127 l21 40 -22 -20 c-44 -39 -63 -121 -40 -179 5 -14 43 -62 85
-106 41 -45 95 -115 119 -157 49 -82 99 -229 117 -338 20 -124 9 -516 -17
-606 -2 -9 -24 -24 -48 -33 -86 -33 -88 -72 -3 -41 66 24 136 24 172 1 43 -28
69 -98 62 -170 -8 -79 -28 -127 -79 -183 -93 -100 -224 -128 -295 -62 -18 18
-26 20 -35 11 -9 -9 -6 -17 11 -36 l22 -24 -25 -62 c-14 -35 -40 -85 -57 -111
-106 -166 -359 -290 -672 -329 -92 -12 -440 -11 -452 1 -2 3 2 31 10 63 17 65
11 183 -11 227 -12 24 -64 56 -122 74 -39 12 -23 39 31 52 53 13 77 28 77 49
0 22 54 17 75 -6 23 -25 42 -12 26 18 -11 21 -59 42 -95 42 -12 0 -51 7 -88
16 -98 24 -128 15 -184 -54 -25 -31 -74 -83 -109 -115 -35 -31 -84 -84 -109
-117 l-45 -60 -49 50 c-55 56 -102 138 -126 219 -19 65 -20 168 -5 306 10 83
9 129 -5 270 -9 94 -19 235 -23 315 -9 238 32 444 121 603 38 69 140 197 157
197 5 0 9 -20 9 -43 0 -63 48 -153 118 -219 49 -47 102 -86 102 -75 0 1 -27
31 -61 65 -126 130 -156 295 -71 397 72 87 209 144 367 151 95 5 99 4 78 -12
-25 -18 -31 -44 -10 -44 6 0 32 14 57 30 25 16 74 40 110 52 130 45 395 20
561 -52 109 -48 195 -101 214 -132 9 -16 23 -28 31 -28 40 0 -13 100 -90 167
-49 43 -136 97 -143 89 -3 -2 6 -10 19 -16 27 -14 108 -90 108 -102 0 -4 -24
5 -52 20 -136 72 -254 101 -438 107 -125 4 -154 2 -210 -15z m-985 -1510 c0
-19 -6 -25 -32 -31 -42 -8 -83 -35 -83 -54 0 -20 6 -19 46 6 19 11 44 19 56
17 29 -4 31 -34 16 -168 -12 -98 -15 -105 -36 -108 -82 -12 -162 99 -162 223
0 43 5 60 27 86 34 40 77 59 128 56 35 -2 40 -5 40 -27z m678 -481 c59 -15 49
-33 -31 -52 -48 -12 -79 -48 -67 -79 3 -8 38 -30 78 -49 55 -26 73 -40 80 -62
5 -16 7 -31 4 -34 -3 -2 -35 12 -72 32 -106 60 -90 30 28 -52 42 -29 69 -74
54 -90 -4 -3 -32 17 -62 46 -67 61 -93 69 -34 10 38 -38 84 -118 73 -128 -2
-3 -11 5 -20 17 -15 22 -94 69 -94 56 0 -3 11 -15 24 -25 27 -21 56 -77 56
-107 0 -25 -25 -52 -49 -52 -14 0 -17 6 -13 30 6 39 -6 39 -93 -5 -39 -20 -93
-39 -120 -43 -40 -6 -49 -11 -47 -25 3 -16 -14 -17 -208 -17 -206 0 -210 0
-200 20 19 35 121 139 183 186 56 42 62 44 65 26 2 -11 9 -25 15 -31 10 -7 13
3 13 44 1 45 7 61 38 104 20 27 68 79 106 114 38 35 87 87 110 116 57 72 74
77 183 50z m1273 -483 c16 -12 20 -29 23 -101 4 -97 -10 -145 -41 -145 -29 0
-50 62 -52 153 -1 67 2 81 18 93 24 17 28 17 52 0z m-321 -64 c50 -15 100 -36
113 -47 1 -1 0 -10 -4 -19 -6 -15 -63 -16 -668 -15 -647 0 -660 0 -606 18 30
10 70 25 88 35 19 10 35 16 35 14 15 -29 27 -44 40 -46 26 -5 83 27 96 54 11
25 13 25 79 18 88 -11 403 -7 467 5 80 16 290 6 360 -17z m465 -7 c29 -35 -15
-216 -55 -232 -10 -3 -21 0 -26 8 -15 21 -6 203 10 223 17 20 55 21 71 1z
m224 -15 c32 -12 33 -35 5 -100 -21 -49 -44 -69 -62 -51 -13 13 -4 126 12 145
16 19 13 19 45 6z m-464 -35 c0 -23 -4 -25 -46 -25 -42 0 -45 2 -33 16 14 17
45 32 67 33 6 1 12 -10 12 -24z m360 5 c13 -24 -2 -116 -26 -162 -17 -33 -49
-36 -65 -7 -11 22 0 109 22 165 11 31 54 33 69 4z"/>
<path d="M7279 4013 c-3 -53 3 -98 17 -125 18 -35 27 -36 14 -2 -6 14 -10 42
-10 63 l0 39 80 -53 c128 -84 284 -131 406 -123 55 4 49 6 -82 31 -112 21
-238 74 -334 141 -43 31 -82 56 -85 56 -3 0 -6 -12 -6 -27z"/>
<path d="M7940 3536 c0 -9 6 -18 13 -20 108 -30 130 -40 181 -87 49 -44 76
-55 76 -30 0 4 -19 27 -42 50 -48 47 -125 87 -187 97 -34 5 -41 4 -41 -10z"/>
<path d="M6977 3456 c-60 -22 -117 -64 -117 -86 0 -26 5 -25 44 5 47 36 99 55
151 55 39 0 46 3 43 18 -4 22 -69 27 -121 8z"/>
<path d="M7018 3120 c-66 -20 -134 -82 -158 -144 -5 -14 -17 -26 -27 -26 -17
-1 -16 -2 1 -15 29 -22 34 -19 58 31 12 27 38 58 61 75 54 39 70 38 50 -2 -41
-83 38 -182 131 -165 19 4 39 13 46 21 8 9 21 13 36 9 23 -6 24 -4 24 37 -1
129 -107 214 -222 179z m32 -105 c0 -8 -4 -15 -9 -15 -13 0 -22 16 -14 24 11
11 23 6 23 -9z m34 -47 c8 -13 8 -23 0 -35 -28 -45 -89 -9 -64 38 13 24 48 22
64 -3z"/>
<path d="M7975 3120 c-75 -23 -165 -140 -165 -213 0 -43 19 -28 38 28 22 64
51 105 93 129 32 19 32 19 24 0 -4 -10 -10 -40 -12 -66 -5 -44 -3 -50 30 -83
30 -30 42 -35 80 -35 37 0 51 5 76 31 17 17 31 35 31 40 0 6 5 7 10 4 6 -3 10
-15 10 -25 0 -27 11 -31 61 -21 l44 9 -32 7 c-27 6 -35 14 -43 44 -16 57 -45
97 -92 125 -50 29 -110 39 -153 26z m43 -111 c-2 -6 -8 -10 -13 -10 -5 0 -11
4 -13 10 -2 6 4 11 13 11 9 0 15 -5 13 -11z m36 -35 c19 -18 19 -20 6 -45 -6
-10 -19 -19 -28 -19 -39 0 -57 50 -24 69 23 14 28 14 46 -5z"/>
<path d="M7388 2898 c-51 -14 -88 -50 -88 -87 0 -42 20 -81 42 -81 22 0 22 8
3 34 -25 33 -18 64 18 87 26 17 44 20 100 16 68 -4 92 4 60 21 -30 16 -96 21
-135 10z"/>
<path d="M8745 2852 c-47 -22 -83 -68 -66 -85 7 -7 16 -5 31 8 26 23 35 14 33
-35 -1 -29 2 -40 12 -40 21 0 30 48 17 83 -6 17 -9 34 -6 38 8 14 66 10 98 -6
36 -19 46 -19 46 0 0 42 -104 65 -165 37z"/>
<path d="M7440 2750 c0 -16 7 -20 35 -20 33 0 35 2 25 20 -6 12 -21 20 -35 20
-18 0 -25 -5 -25 -20z"/>
<path d="M7380 2391 c0 -6 16 -22 35 -37 28 -21 39 -24 48 -15 9 9 5 17 -18
36 -30 25 -65 33 -65 16z"/>
</g>
</svg>
